<svg xmlns="http://www.w3.org/2000/svg" xmlns:xlink="http://www.w3.org/1999/xlink" width="100" zoomAndPan="magnify" viewBox="0 0 75 74.999997" height="100" preserveAspectRatio="xMidYMid meet" version="1.0"><defs><clipPath id="d6e9622847"><path d="M 57 29 L 67.839844 29 L 67.839844 39 L 57 39 Z M 57 29 " clip-rule="nonzero"/></clipPath><clipPath id="2636e4752d"><path d="M 8.589844 44 L 37 44 L 37 70 L 8.589844 70 Z M 8.589844 44 " clip-rule="nonzero"/></clipPath><clipPath id="79af8d730b"><path d="M 8.589844 59 L 19 59 L 19 70 L 8.589844 70 Z M 8.589844 59 " clip-rule="nonzero"/></clipPath><clipPath id="f298829200"><path d="M 8.589844 59 L 13 59 L 13 63 L 8.589844 63 Z M 8.589844 59 " clip-rule="nonzero"/></clipPath><clipPath id="a87e9ed205"><path d="M 8.589844 59 L 20 59 L 20 70 L 8.589844 70 Z M 8.589844 59 " clip-rule="nonzero"/></clipPath></defs><path fill="#e2e2d3" d="M 65.96875 35.152344 C 65.769531 35.722656 65.410156 36.269531 64.914062 36.742188 C 63.308594 38.28125 52.199219 40.277344 48.023438 40.980469 C 47.042969 41.148438 46.445312 41.242188 46.445312 41.242188 L 43.296875 36.800781 C 43.296875 36.800781 59.726562 29.972656 63.1875 30.890625 C 65.78125 31.578125 66.570312 33.457031 65.96875 35.152344 Z M 65.96875 35.152344 " fill-opacity="1" fill-rule="nonzero"/><path fill="#afaea0" d="M 65.96875 35.152344 C 65.769531 35.722656 65.410156 36.269531 64.914062 36.742188 C 63.308594 38.28125 52.199219 40.277344 48.023438 40.980469 C 47.957031 39.847656 47.851562 38.539062 47.851562 38.539062 C 47.851562 38.539062 61.28125 36.890625 64.277344 35.429688 C 64.777344 35.1875 65.363281 35.105469 65.96875 35.152344 Z M 65.96875 35.152344 " fill-opacity="1" fill-rule="nonzero"/><path fill="#1c1d23" d="M 43.496094 36.859375 C 44.566406 38.289062 45.601562 39.683594 46.613281 41.121094 L 46.410156 41.039062 C 48.339844 40.523438 50.292969 40.171875 52.246094 39.8125 C 54.199219 39.449219 56.144531 39.058594 58.078125 38.621094 C 59.042969 38.398438 60.003906 38.164062 60.957031 37.902344 C 61.90625 37.640625 62.851562 37.359375 63.730469 36.984375 C 63.84375 36.941406 63.945312 36.886719 64.050781 36.835938 C 64.101562 36.808594 64.15625 36.785156 64.207031 36.757812 L 64.347656 36.671875 C 64.394531 36.644531 64.449219 36.617188 64.484375 36.589844 L 64.597656 36.5 C 64.636719 36.472656 64.675781 36.429688 64.71875 36.390625 C 64.757812 36.351562 64.800781 36.3125 64.835938 36.269531 C 65.140625 35.933594 65.394531 35.554688 65.558594 35.140625 C 65.726562 34.730469 65.800781 34.289062 65.765625 33.863281 C 65.734375 33.433594 65.582031 33.023438 65.339844 32.664062 C 65.09375 32.304688 64.757812 32.007812 64.371094 31.769531 C 63.980469 31.539062 63.546875 31.363281 63.09375 31.238281 C 62.902344 31.1875 62.671875 31.167969 62.441406 31.164062 C 62.210938 31.164062 61.972656 31.171875 61.734375 31.195312 C 61.257812 31.234375 60.773438 31.3125 60.292969 31.402344 C 59.332031 31.585938 58.375 31.828125 57.417969 32.089844 C 56.46875 32.355469 55.519531 32.644531 54.574219 32.945312 C 52.6875 33.546875 50.808594 34.195312 48.945312 34.875 C 48.011719 35.214844 47.082031 35.5625 46.152344 35.917969 L 44.761719 36.449219 L 44.066406 36.71875 L 43.722656 36.855469 L 43.546875 36.925781 L 43.460938 36.960938 L 43.417969 36.976562 L 43.398438 36.984375 C 43.398438 36.984375 43.375 36.996094 43.402344 36.984375 C 43.445312 36.960938 43.488281 36.90625 43.496094 36.859375 Z M 43.09375 36.742188 C 43.109375 36.695312 43.160156 36.636719 43.210938 36.613281 L 43.238281 36.601562 L 43.257812 36.589844 L 43.300781 36.574219 L 43.386719 36.535156 L 43.558594 36.464844 L 43.902344 36.320312 L 44.59375 36.03125 L 45.976562 35.46875 C 46.898438 35.097656 47.824219 34.730469 48.753906 34.375 C 50.613281 33.664062 52.484375 32.972656 54.378906 32.34375 C 55.324219 32.03125 56.277344 31.730469 57.238281 31.453125 C 58.199219 31.179688 59.171875 30.921875 60.160156 30.722656 C 60.65625 30.625 61.15625 30.539062 61.667969 30.488281 C 61.925781 30.460938 62.1875 30.449219 62.453125 30.449219 C 62.71875 30.449219 62.992188 30.46875 63.28125 30.539062 C 63.789062 30.671875 64.289062 30.867188 64.753906 31.136719 C 65.21875 31.414062 65.644531 31.777344 65.96875 32.234375 C 66.285156 32.695312 66.488281 33.242188 66.53125 33.800781 C 66.578125 34.359375 66.484375 34.917969 66.277344 35.425781 C 66.078125 35.933594 65.773438 36.394531 65.410156 36.792969 C 65.367188 36.84375 65.316406 36.886719 65.273438 36.9375 C 65.226562 36.984375 65.179688 37.03125 65.117188 37.078125 L 64.9375 37.222656 C 64.878906 37.269531 64.820312 37.296875 64.761719 37.335938 L 64.582031 37.441406 C 64.523438 37.472656 64.464844 37.5 64.40625 37.53125 C 64.285156 37.585938 64.167969 37.652344 64.046875 37.699219 C 63.097656 38.105469 62.136719 38.394531 61.167969 38.664062 C 60.203125 38.933594 59.234375 39.171875 58.257812 39.398438 C 56.3125 39.851562 54.359375 40.246094 52.402344 40.621094 C 50.441406 40.996094 48.476562 41.332031 46.476562 41.449219 L 46.347656 41.46875 L 46.273438 41.363281 C 45.191406 39.839844 44.125 38.277344 43.09375 36.742188 Z M 43.09375 36.742188 " fill-opacity="1" fill-rule="nonzero"/><path fill="#e2e2d3" d="M 65.773438 36.71875 C 63.355469 39.234375 60.480469 37.8125 60.480469 37.8125 L 60.203125 37.570312 C 59.964844 37.359375 59.742188 37.136719 59.53125 36.90625 C 58.164062 35.414062 57.390625 33.558594 57.351562 31.636719 C 57.351562 31.636719 60.117188 29.25 63.328125 29.53125 C 63.796875 29.574219 64.230469 29.699219 64.625 29.898438 C 66.933594 31.046875 67.835938 34.570312 65.773438 36.71875 Z M 65.773438 36.71875 " fill-opacity="1" fill-rule="nonzero"/><path fill="#afaea0" d="M 65.773438 36.71875 C 63.355469 39.234375 60.480469 37.8125 60.480469 37.8125 L 60.203125 37.570312 C 59.964844 37.359375 59.742188 37.136719 59.53125 36.90625 L 59.628906 36.703125 C 59.628906 36.703125 61.726562 37.15625 63.875 35.941406 C 65.644531 34.941406 65.410156 31.804688 64.625 29.898438 C 66.933594 31.046875 67.835938 34.570312 65.773438 36.71875 Z M 65.773438 36.71875 " fill-opacity="1" fill-rule="nonzero"/><g clip-path="url(#d6e9622847)"><path fill="#1c1d23" d="M 57.488281 31.792969 C 57.632812 31.472656 57.527344 31.707031 57.558594 31.636719 L 57.558594 31.648438 L 57.5625 31.660156 L 57.5625 31.742188 L 57.570312 31.851562 C 57.574219 31.921875 57.574219 31.996094 57.582031 32.066406 C 57.597656 32.210938 57.609375 32.355469 57.628906 32.496094 C 57.671875 32.78125 57.726562 33.066406 57.800781 33.347656 C 57.945312 33.90625 58.15625 34.449219 58.425781 34.964844 C 58.691406 35.480469 59.015625 35.964844 59.382812 36.414062 C 59.566406 36.640625 59.765625 36.855469 59.96875 37.0625 C 60.175781 37.265625 60.394531 37.460938 60.617188 37.660156 L 60.574219 37.628906 C 60.761719 37.6875 60.976562 37.746094 61.1875 37.78125 C 61.394531 37.824219 61.609375 37.851562 61.816406 37.867188 C 62.242188 37.902344 62.660156 37.878906 63.070312 37.808594 C 63.480469 37.742188 63.867188 37.589844 64.242188 37.417969 L 64.511719 37.265625 L 64.648438 37.1875 L 64.773438 37.097656 L 65.027344 36.910156 C 65.070312 36.882812 65.109375 36.847656 65.144531 36.8125 L 65.261719 36.703125 C 65.902344 36.160156 66.324219 35.421875 66.492188 34.613281 C 66.664062 33.808594 66.566406 32.945312 66.253906 32.175781 C 65.929688 31.414062 65.402344 30.722656 64.691406 30.300781 C 64.339844 30.085938 63.953125 29.933594 63.546875 29.867188 C 63.441406 29.855469 63.34375 29.832031 63.234375 29.832031 L 62.753906 29.808594 C 62.703125 29.804688 62.648438 29.8125 62.59375 29.8125 L 62.269531 29.828125 C 60.550781 29.964844 58.871094 30.746094 57.488281 31.792969 Z M 57.214844 31.480469 C 57.925781 30.875 58.703125 30.394531 59.542969 30.003906 C 59.753906 29.90625 59.964844 29.8125 60.183594 29.734375 C 60.398438 29.644531 60.621094 29.578125 60.84375 29.511719 C 60.953125 29.472656 61.070312 29.449219 61.183594 29.421875 L 61.523438 29.339844 L 61.871094 29.289062 C 61.988281 29.273438 62.101562 29.246094 62.21875 29.242188 L 62.574219 29.21875 C 62.632812 29.21875 62.691406 29.210938 62.75 29.210938 L 62.925781 29.214844 L 63.28125 29.226562 C 63.398438 29.226562 63.523438 29.25 63.644531 29.261719 C 64.128906 29.335938 64.597656 29.507812 65.019531 29.75 C 65.445312 29.996094 65.820312 30.316406 66.132812 30.6875 C 66.445312 31.058594 66.699219 31.472656 66.882812 31.917969 C 67.25 32.804688 67.375 33.800781 67.179688 34.753906 C 67.085938 35.226562 66.914062 35.691406 66.667969 36.113281 C 66.429688 36.535156 66.109375 36.921875 65.75 37.230469 L 65.617188 37.351562 C 65.574219 37.394531 65.53125 37.433594 65.480469 37.46875 L 65.191406 37.683594 L 65.042969 37.792969 L 64.886719 37.882812 L 64.570312 38.0625 C 64.460938 38.117188 64.347656 38.164062 64.234375 38.210938 L 64.066406 38.28125 C 64.011719 38.300781 63.949219 38.316406 63.890625 38.335938 C 63.773438 38.367188 63.65625 38.40625 63.539062 38.433594 L 63.179688 38.496094 C 62.699219 38.5625 62.210938 38.550781 61.738281 38.46875 C 61.503906 38.425781 61.269531 38.367188 61.046875 38.289062 C 60.816406 38.214844 60.605469 38.125 60.386719 38 L 60.355469 37.980469 L 60.339844 37.96875 C 60.117188 37.773438 59.890625 37.566406 59.671875 37.351562 C 59.457031 37.136719 59.253906 36.914062 59.058594 36.675781 C 58.671875 36.207031 58.332031 35.695312 58.050781 35.152344 C 57.769531 34.613281 57.550781 34.039062 57.394531 33.449219 C 57.316406 33.15625 57.257812 32.855469 57.214844 32.554688 C 57.191406 32.402344 57.183594 32.25 57.164062 32.097656 C 57.15625 32.023438 57.15625 31.945312 57.152344 31.871094 L 57.144531 31.753906 L 57.144531 31.699219 L 57.140625 31.667969 L 57.140625 31.644531 C 57.171875 31.570312 57.070312 31.804688 57.214844 31.480469 Z M 57.214844 31.480469 " fill-opacity="1" fill-rule="nonzero"/></g><path fill="#e2e2d3" d="M 32.863281 33.785156 L 29.582031 35.789062 L 28.207031 36.632812 C 28.207031 36.632812 19.96875 31.457031 15.601562 27.894531 C 14.253906 26.792969 13.277344 25.84375 13.023438 25.246094 C 11.957031 22.722656 13.390625 20.027344 16.933594 20.546875 C 20.480469 21.0625 32.863281 33.785156 32.863281 33.785156 Z M 32.863281 33.785156 " fill-opacity="1" fill-rule="nonzero"/><path fill="#afaea0" d="M 29.582031 35.789062 L 28.207031 36.632812 C 28.207031 36.632812 19.96875 31.457031 15.601562 27.894531 L 18.042969 27.445312 C 18.042969 27.445312 25.769531 33.308594 29.582031 35.789062 Z M 29.582031 35.789062 " fill-opacity="1" fill-rule="nonzero"/><path fill="#1c1d23" d="M 33.070312 33.8125 C 31.515625 34.8125 29.917969 35.832031 28.316406 36.808594 L 28.207031 36.875 L 28.097656 36.804688 C 26.402344 35.761719 24.726562 34.6875 23.066406 33.59375 C 21.402344 32.503906 19.757812 31.382812 18.144531 30.214844 C 17.335938 29.632812 16.539062 29.035156 15.753906 28.417969 C 14.972656 27.792969 14.199219 27.160156 13.488281 26.421875 C 13.394531 26.332031 13.3125 26.226562 13.226562 26.128906 C 13.183594 26.082031 13.140625 26.035156 13.097656 25.980469 L 12.976562 25.816406 C 12.9375 25.761719 12.894531 25.710938 12.859375 25.648438 L 12.753906 25.453125 C 12.714844 25.386719 12.695312 25.324219 12.667969 25.261719 C 12.648438 25.199219 12.617188 25.140625 12.597656 25.078125 C 12.425781 24.574219 12.328125 24.042969 12.34375 23.5 C 12.351562 22.960938 12.488281 22.414062 12.746094 21.925781 C 13 21.433594 13.398438 21.019531 13.867188 20.722656 C 14.335938 20.429688 14.871094 20.257812 15.402344 20.183594 C 15.933594 20.113281 16.46875 20.128906 16.984375 20.203125 C 17.28125 20.25 17.535156 20.339844 17.78125 20.4375 C 18.027344 20.542969 18.261719 20.65625 18.488281 20.777344 C 18.941406 21.023438 19.367188 21.296875 19.785156 21.578125 C 21.449219 22.714844 22.976562 24 24.472656 25.316406 C 25.964844 26.636719 27.421875 27.988281 28.839844 29.382812 C 29.550781 30.082031 30.257812 30.777344 30.953125 31.488281 L 31.988281 32.558594 L 32.503906 33.097656 L 32.757812 33.367188 L 32.886719 33.503906 L 32.949219 33.574219 L 32.980469 33.605469 L 32.996094 33.625 L 33.015625 33.644531 C 33.054688 33.6875 33.078125 33.761719 33.070312 33.8125 Z M 32.65625 33.757812 C 32.644531 33.804688 32.660156 33.875 32.695312 33.910156 C 32.710938 33.929688 32.695312 33.910156 32.695312 33.914062 L 32.648438 33.867188 L 32.578125 33.800781 L 32.179688 33.414062 L 31.644531 32.898438 L 30.570312 31.871094 C 29.847656 31.191406 29.136719 30.503906 28.410156 29.828125 C 26.957031 28.480469 25.503906 27.136719 24.011719 25.835938 C 23.265625 25.1875 22.507812 24.554688 21.742188 23.933594 C 20.972656 23.3125 20.195312 22.710938 19.386719 22.15625 C 18.980469 21.882812 18.570312 21.617188 18.148438 21.390625 C 17.941406 21.273438 17.726562 21.171875 17.511719 21.082031 C 17.300781 20.992188 17.082031 20.917969 16.882812 20.886719 C 16.417969 20.820312 15.949219 20.808594 15.492188 20.863281 C 15.042969 20.925781 14.605469 21.066406 14.230469 21.296875 C 13.859375 21.535156 13.550781 21.855469 13.34375 22.242188 C 13.140625 22.628906 13.027344 23.070312 13.019531 23.519531 C 13.003906 23.96875 13.085938 24.425781 13.234375 24.859375 C 13.25 24.914062 13.273438 24.964844 13.292969 25.019531 C 13.316406 25.074219 13.335938 25.128906 13.359375 25.167969 L 13.429688 25.300781 C 13.453125 25.34375 13.496094 25.390625 13.523438 25.4375 L 13.621094 25.574219 C 13.65625 25.617188 13.699219 25.664062 13.734375 25.707031 C 13.8125 25.796875 13.882812 25.886719 13.96875 25.972656 C 14.628906 26.667969 15.382812 27.308594 16.148438 27.929688 C 16.917969 28.546875 17.703125 29.144531 18.5 29.734375 C 21.695312 32.074219 24.992188 34.292969 28.320312 36.453125 L 28.097656 36.453125 C 29.601562 35.53125 31.105469 34.652344 32.65625 33.757812 Z M 32.65625 33.757812 " fill-opacity="1" fill-rule="nonzero"/><path fill="#e2e2d3" d="M 22 23.523438 C 21.222656 25.230469 19.824219 26.605469 18.042969 27.445312 C 17.714844 27.601562 17.375 27.738281 17.023438 27.855469 L 16.675781 27.96875 C 16.675781 27.96875 13.46875 28.144531 12.246094 24.886719 C 11.621094 23.214844 12.171875 21.511719 13.269531 20.378906 C 14.3125 19.308594 15.851562 18.753906 17.34375 19.242188 C 20.40625 20.246094 22 23.523438 22 23.523438 Z M 22 23.523438 " fill-opacity="1" fill-rule="nonzero"/><path fill="#afaea0" d="M 18.53125 27.09375 L 18.042969 27.445312 C 17.714844 27.601562 17.375 27.738281 17.023438 27.855469 L 16.675781 27.96875 C 16.675781 27.96875 13.46875 28.144531 12.246094 24.886719 C 11.621094 23.214844 12.171875 21.511719 13.269531 20.378906 C 13.015625 21.8125 12.496094 27.039062 18.53125 27.09375 Z M 18.53125 27.09375 " fill-opacity="1" fill-rule="nonzero"/><path fill="#1c1d23" d="M 16.230469 19.273438 C 15.222656 19.273438 14.203125 19.714844 13.414062 20.53125 C 12.269531 21.714844 11.894531 23.355469 12.441406 24.816406 C 13.546875 27.765625 16.3125 27.773438 16.636719 27.761719 L 16.957031 27.65625 C 19.117188 26.9375 20.863281 25.4375 21.769531 23.527344 C 21.492188 23.011719 19.945312 20.3125 17.277344 19.4375 C 16.9375 19.328125 16.582031 19.273438 16.230469 19.273438 Z M 16.613281 28.179688 C 16.109375 28.179688 13.207031 28.042969 12.050781 24.960938 C 11.449219 23.351562 11.855469 21.542969 13.113281 20.242188 C 14.296875 19.023438 15.941406 18.5625 17.410156 19.042969 C 20.519531 20.0625 22.121094 23.296875 22.1875 23.433594 L 22.230469 23.523438 L 22.191406 23.609375 C 21.253906 25.664062 19.394531 27.285156 17.089844 28.050781 L 16.714844 28.175781 L 16.6875 28.175781 C 16.683594 28.179688 16.65625 28.179688 16.613281 28.179688 Z M 16.613281 28.179688 " fill-opacity="1" fill-rule="nonzero"/><path fill="#e2e2d3" d="M 47.300781 73.308594 L 42.417969 74.199219 C 41.941406 74.285156 41.472656 74.253906 41.042969 74.121094 C 40.164062 73.855469 39.453125 73.179688 39.1875 72.273438 C 39.179688 72.242188 39.167969 72.210938 39.164062 72.179688 L 36.355469 61.007812 C 36.046875 59.792969 31.597656 55.734375 31.546875 53.851562 L 31.816406 53.800781 L 34.421875 53.328125 L 33.1875 48.40625 C 32.792969 46.84375 33.878906 45.273438 35.527344 45.023438 L 37.613281 44.703125 C 38.945312 44.5 40.234375 45.230469 40.691406 46.449219 L 49.097656 68.65625 L 49.472656 69.644531 C 50.074219 71.238281 49.039062 72.988281 47.300781 73.308594 Z M 47.300781 73.308594 " fill-opacity="1" fill-rule="nonzero"/><path fill="#afaea0" d="M 42.109375 69.226562 L 41.042969 74.121094 C 40.164062 73.855469 39.453125 73.179688 39.1875 72.273438 C 39.179688 72.242188 39.167969 72.210938 39.164062 72.179688 L 36.355469 61.007812 C 36.046875 59.792969 31.597656 55.734375 31.546875 53.851562 L 31.816406 53.800781 L 37.335938 56.609375 Z M 42.109375 69.226562 " fill-opacity="1" fill-rule="nonzero"/><path fill="#1c1d23" d="M 49.875 69.492188 C 50.019531 69.878906 50.089844 70.292969 50.078125 70.707031 C 50.0625 71.121094 49.960938 71.53125 49.789062 71.910156 C 49.445312 72.664062 48.792969 73.261719 48.023438 73.566406 C 47.925781 73.605469 47.828125 73.640625 47.730469 73.671875 L 47.429688 73.746094 C 47.242188 73.785156 47.074219 73.8125 46.894531 73.847656 L 42.675781 74.644531 C 42.585938 74.660156 42.503906 74.679688 42.394531 74.695312 C 42.289062 74.707031 42.1875 74.726562 42.082031 74.726562 C 41.976562 74.730469 41.871094 74.738281 41.769531 74.730469 C 41.664062 74.726562 41.558594 74.726562 41.453125 74.707031 C 40.621094 74.609375 39.828125 74.183594 39.292969 73.527344 C 39.222656 73.445312 39.164062 73.355469 39.101562 73.269531 C 39.046875 73.183594 38.996094 73.089844 38.941406 73 C 38.894531 72.902344 38.851562 72.808594 38.808594 72.710938 L 38.703125 72.417969 C 38.667969 72.292969 38.652344 72.21875 38.628906 72.128906 L 38.429688 71.355469 L 37.90625 69.28125 L 36.878906 65.132812 L 35.875 61.050781 C 35.832031 60.9375 35.746094 60.792969 35.664062 60.65625 C 35.574219 60.519531 35.480469 60.378906 35.375 60.242188 C 35.175781 59.960938 34.957031 59.683594 34.734375 59.40625 C 34.296875 58.851562 33.84375 58.296875 33.402344 57.726562 C 32.96875 57.15625 32.53125 56.578125 32.148438 55.953125 C 31.957031 55.644531 31.777344 55.324219 31.621094 54.980469 C 31.46875 54.640625 31.34375 54.273438 31.339844 53.855469 L 31.324219 53.679688 L 31.507812 53.648438 L 34.382812 53.121094 L 34.21875 53.375 L 32.957031 48.488281 C 32.839844 48.046875 32.828125 47.570312 32.929688 47.125 C 33.027344 46.675781 33.230469 46.25 33.519531 45.890625 C 33.804688 45.53125 34.171875 45.234375 34.589844 45.035156 C 34.800781 44.9375 35.015625 44.855469 35.242188 44.804688 C 35.472656 44.75 35.675781 44.722656 35.886719 44.6875 L 37.140625 44.488281 C 37.351562 44.457031 37.546875 44.421875 37.789062 44.398438 C 37.902344 44.386719 38.019531 44.386719 38.136719 44.382812 C 38.25 44.390625 38.367188 44.390625 38.484375 44.410156 C 39.410156 44.519531 40.273438 45.074219 40.753906 45.882812 C 40.808594 45.984375 40.871094 46.085938 40.914062 46.195312 L 40.984375 46.355469 L 41.039062 46.5 L 42.625 50.628906 Z M 49.066406 69.792969 L 42.011719 50.859375 L 41.132812 48.492188 L 40.691406 47.308594 L 40.46875 46.714844 L 40.414062 46.566406 L 40.359375 46.4375 C 40.328125 46.347656 40.277344 46.269531 40.234375 46.1875 C 39.859375 45.539062 39.164062 45.078125 38.40625 44.980469 C 38.3125 44.960938 38.21875 44.964844 38.125 44.953125 C 38.027344 44.957031 37.933594 44.953125 37.835938 44.964844 C 37.65625 44.976562 37.433594 45.015625 37.226562 45.046875 L 35.972656 45.230469 C 35.761719 45.261719 35.546875 45.289062 35.367188 45.332031 C 35.179688 45.371094 34.996094 45.4375 34.824219 45.515625 C 34.472656 45.675781 34.164062 45.917969 33.921875 46.214844 C 33.433594 46.804688 33.230469 47.621094 33.425781 48.371094 L 34.625 53.277344 L 34.679688 53.492188 L 34.460938 53.53125 L 31.585938 54.054688 L 31.757812 53.847656 C 31.792969 54.144531 31.929688 54.457031 32.089844 54.753906 C 32.253906 55.050781 32.453125 55.335938 32.65625 55.617188 C 33.074219 56.175781 33.527344 56.71875 33.992188 57.253906 L 35.402344 58.863281 C 35.636719 59.136719 35.867188 59.414062 36.097656 59.707031 C 36.210938 59.851562 36.320312 60 36.429688 60.160156 C 36.539062 60.324219 36.648438 60.480469 36.738281 60.699219 C 36.761719 60.753906 36.785156 60.824219 36.804688 60.882812 L 36.839844 61.015625 L 36.90625 61.277344 L 37.042969 61.792969 L 37.3125 62.828125 L 37.84375 64.898438 L 38.902344 69.042969 L 39.417969 71.117188 L 39.671875 72.125 C 39.757812 72.417969 39.890625 72.667969 40.074219 72.898438 C 40.441406 73.351562 40.992188 73.65625 41.582031 73.734375 C 41.65625 73.746094 41.730469 73.75 41.804688 73.753906 C 41.878906 73.761719 41.953125 73.753906 42.027344 73.753906 C 42.101562 73.753906 42.175781 73.738281 42.25 73.730469 C 42.316406 73.726562 42.410156 73.707031 42.496094 73.691406 L 45.671875 73.128906 L 46.730469 72.945312 C 46.902344 72.910156 47.089844 72.882812 47.253906 72.847656 L 47.472656 72.796875 C 47.546875 72.777344 47.617188 72.746094 47.6875 72.722656 C 48.246094 72.507812 48.726562 72.078125 48.984375 71.535156 C 49.242188 70.992188 49.273438 70.359375 49.066406 69.792969 Z M 49.066406 69.792969 " fill-opacity="1" fill-rule="nonzero"/><path fill="#e2e2d3" d="M 35.515625 51.171875 L 34 55.175781 C 33.554688 55.523438 32.75 56.03125 31.8125 56.59375 C 29.617188 57.910156 26.707031 59.53125 26.066406 60.140625 L 18.054688 67.742188 L 17.691406 68.085938 C 17.527344 68.242188 17.351562 68.371094 17.164062 68.480469 C 16.132812 69.0625 14.785156 68.921875 13.851562 68.066406 L 10.203125 64.714844 C 8.90625 63.523438 8.96875 61.496094 10.339844 60.46875 L 10.851562 60.082031 L 30.226562 45.523438 C 31.269531 44.738281 32.75 44.808594 33.765625 45.6875 L 35.355469 47.0625 C 36.617188 48.15625 36.691406 50.054688 35.515625 51.171875 Z M 35.515625 51.171875 " fill-opacity="1" fill-rule="nonzero"/><path fill="#ffffff" d="M 22.277344 53.28125 L 13.003906 59.828125 L 12.027344 59.675781 L 11.503906 59.589844 L 10.980469 59.507812 L 21.433594 51.710938 L 21.597656 52.007812 L 21.753906 52.308594 Z M 22.277344 53.28125 " fill-opacity="1" fill-rule="nonzero"/><path fill="#afaea0" d="M 32.160156 55.789062 C 32.152344 55.835938 32.023438 56.128906 31.8125 56.59375 C 29.617188 57.910156 26.707031 59.53125 26.066406 60.140625 L 18.054688 67.742188 L 17.691406 68.085938 C 17.527344 68.242188 17.351562 68.371094 17.164062 68.480469 L 17.511719 62.703125 L 27.34375 55.191406 C 27.34375 55.1875 32.210938 55.492188 32.160156 55.789062 Z M 32.160156 55.789062 " fill-opacity="1" fill-rule="nonzero"/><g clip-path="url(#2636e4752d)"><path fill="#1c1d23" d="M 35.335938 51.058594 L 35.320312 51.097656 L 33.828125 55.050781 C 33.761719 55.09375 33.695312 55.132812 33.632812 55.171875 L 33.535156 55.238281 L 33.421875 55.308594 C 33.265625 55.402344 33.113281 55.5 32.957031 55.59375 C 32.648438 55.78125 32.332031 55.960938 32.015625 56.140625 C 32.015625 56.140625 32.015625 56.144531 32.011719 56.144531 L 30.097656 57.21875 C 29.457031 57.574219 28.816406 57.9375 28.179688 58.304688 C 27.859375 58.484375 27.542969 58.675781 27.226562 58.867188 C 26.910156 59.0625 26.59375 59.253906 26.277344 59.472656 L 26.042969 59.640625 L 25.796875 59.839844 L 25.394531 60.214844 L 24.59375 60.972656 L 22.996094 62.480469 L 19.8125 65.511719 L 17.421875 67.785156 C 17.347656 67.855469 17.273438 67.917969 17.195312 67.976562 C 17.023438 68.105469 16.835938 68.207031 16.632812 68.28125 C 16.046875 68.5 15.371094 68.472656 14.792969 68.210938 C 14.71875 68.183594 14.652344 68.144531 14.582031 68.105469 C 14.511719 68.070312 14.445312 68.023438 14.382812 67.976562 C 14.3125 67.9375 14.253906 67.882812 14.195312 67.832031 C 14.136719 67.785156 14.066406 67.722656 14 67.660156 L 13.1875 66.917969 L 11.566406 65.433594 L 10.753906 64.691406 C 10.46875 64.433594 10.246094 64.226562 10.070312 63.960938 C 9.710938 63.4375 9.585938 62.769531 9.707031 62.15625 C 9.769531 61.847656 9.890625 61.554688 10.070312 61.296875 C 10.121094 61.238281 10.160156 61.167969 10.214844 61.113281 C 10.265625 61.058594 10.320312 60.996094 10.375 60.941406 L 10.554688 60.789062 C 10.621094 60.738281 10.699219 60.679688 10.769531 60.625 L 12.027344 59.675781 L 21.757812 52.308594 L 24.800781 50.003906 L 28.304688 47.34375 L 30.054688 46.011719 L 30.273438 45.84375 L 30.382812 45.761719 L 30.488281 45.6875 C 30.550781 45.640625 30.625 45.597656 30.695312 45.558594 C 30.765625 45.515625 30.84375 45.484375 30.917969 45.449219 C 31.21875 45.316406 31.550781 45.253906 31.878906 45.253906 C 32.210938 45.253906 32.546875 45.3125 32.855469 45.4375 C 33.007812 45.5 33.160156 45.574219 33.296875 45.664062 C 33.367188 45.710938 33.4375 45.757812 33.503906 45.808594 L 33.601562 45.886719 L 33.707031 45.976562 L 34.542969 46.691406 L 34.960938 47.050781 L 35.167969 47.226562 C 35.234375 47.285156 35.292969 47.34375 35.355469 47.402344 C 35.828125 47.878906 36.113281 48.535156 36.121094 49.207031 L 36.121094 49.253906 C 36.121094 49.910156 35.851562 50.5625 35.371094 51.019531 Z M 35.707031 47.058594 C 35.636719 46.992188 35.5625 46.917969 35.492188 46.855469 L 35.285156 46.675781 L 34.871094 46.3125 L 34.046875 45.585938 L 33.941406 45.496094 L 33.828125 45.402344 C 33.75 45.335938 33.667969 45.28125 33.585938 45.226562 C 33.417969 45.113281 33.238281 45.023438 33.054688 44.945312 C 32.683594 44.789062 32.28125 44.710938 31.878906 44.707031 C 31.476562 44.707031 31.070312 44.777344 30.699219 44.9375 C 30.605469 44.976562 30.511719 45.015625 30.421875 45.066406 C 30.332031 45.113281 30.246094 45.164062 30.164062 45.222656 L 30.039062 45.308594 L 29.929688 45.390625 L 29.707031 45.554688 L 27.941406 46.863281 L 24.410156 49.488281 L 21.433594 51.710938 L 10.980469 59.507812 L 10.304688 60.011719 C 10.230469 60.070312 10.160156 60.117188 10.082031 60.179688 L 9.84375 60.382812 C 9.769531 60.457031 9.699219 60.535156 9.625 60.609375 C 9.554688 60.6875 9.5 60.777344 9.433594 60.859375 C 9.191406 61.203125 9.027344 61.597656 8.945312 62.007812 C 8.78125 62.820312 8.949219 63.703125 9.417969 64.390625 C 9.46875 64.480469 9.542969 64.558594 9.601562 64.640625 C 9.664062 64.726562 9.738281 64.800781 9.808594 64.875 L 9.917969 64.984375 C 9.957031 65.019531 9.984375 65.046875 10.019531 65.078125 L 10.222656 65.265625 L 11.03125 66.011719 L 12.648438 67.5 L 13.457031 68.242188 C 13.523438 68.304688 13.589844 68.367188 13.675781 68.433594 C 13.753906 68.5 13.832031 68.570312 13.921875 68.625 C 14.007812 68.6875 14.09375 68.746094 14.183594 68.796875 C 14.273438 68.847656 14.367188 68.898438 14.460938 68.9375 C 15.222656 69.28125 16.121094 69.324219 16.917969 69.03125 C 17.3125 68.886719 17.679688 68.65625 17.980469 68.367188 L 18.777344 67.613281 L 23.570312 63.078125 L 25.160156 61.5625 L 25.957031 60.804688 L 26.351562 60.421875 L 26.53125 60.273438 L 26.738281 60.117188 C 27.3125 59.707031 27.945312 59.328125 28.5625 58.941406 L 30.4375 57.792969 C 31.0625 57.410156 31.6875 57.023438 32.308594 56.621094 C 32.617188 56.421875 32.925781 56.21875 33.230469 56.007812 C 33.382812 55.90625 33.535156 55.792969 33.683594 55.683594 L 33.796875 55.601562 L 33.921875 55.5 C 34.003906 55.433594 34.085938 55.363281 34.167969 55.296875 L 35.695312 51.285156 C 36.253906 50.75 36.578125 49.980469 36.574219 49.207031 C 36.582031 48.414062 36.261719 47.628906 35.707031 47.058594 Z M 35.707031 47.058594 " fill-opacity="1" fill-rule="nonzero"/></g><path fill="#afaea0" d="M 19.914062 50.257812 L 19.613281 51.609375 C 19.480469 52.195312 19.8125 52.785156 20.382812 52.980469 C 22.550781 53.722656 27.84375 55.480469 32.097656 56.425781 C 36.363281 57.371094 42.128906 58.171875 44.492188 58.484375 C 45.097656 58.5625 45.667969 58.167969 45.800781 57.574219 L 46.363281 55.0625 C 46.511719 54.410156 46.082031 53.765625 45.417969 53.644531 L 21.28125 49.355469 C 20.65625 49.242188 20.054688 49.640625 19.914062 50.257812 Z M 19.914062 50.257812 " fill-opacity="1" fill-rule="nonzero"/><path fill="#e2e2d3" d="M 19.980469 49.621094 L 19.675781 50.972656 C 19.542969 51.558594 19.875 52.148438 20.445312 52.34375 C 22.613281 53.089844 27.90625 54.847656 32.160156 55.789062 C 36.425781 56.734375 42.191406 57.535156 44.554688 57.847656 C 45.164062 57.929688 45.730469 57.53125 45.863281 56.9375 L 46.429688 54.425781 C 46.574219 53.773438 46.144531 53.128906 45.480469 53.011719 L 21.34375 48.71875 C 20.71875 48.609375 20.117188 49.007812 19.980469 49.621094 Z M 19.980469 49.621094 " fill-opacity="1" fill-rule="nonzero"/><path fill="#1c1d23" d="M 21.070312 49.542969 C 20.621094 49.542969 20.21875 49.851562 20.121094 50.304688 L 19.816406 51.65625 C 19.707031 52.136719 19.980469 52.621094 20.449219 52.78125 C 22.546875 53.503906 27.878906 55.277344 32.140625 56.222656 C 36.417969 57.171875 42.222656 57.976562 44.519531 58.277344 C 45.023438 58.34375 45.488281 58.019531 45.597656 57.527344 L 46.160156 55.015625 C 46.21875 54.757812 46.167969 54.488281 46.019531 54.269531 C 45.871094 54.046875 45.644531 53.898438 45.378906 53.851562 L 21.242188 49.558594 C 21.183594 49.546875 21.125 49.542969 21.070312 49.542969 Z M 44.652344 58.703125 C 44.589844 58.703125 44.527344 58.699219 44.464844 58.6875 C 42.160156 58.386719 36.339844 57.578125 32.050781 56.628906 C 27.769531 55.675781 22.414062 53.898438 20.3125 53.175781 C 19.644531 52.945312 19.253906 52.253906 19.40625 51.5625 L 19.710938 50.210938 C 19.875 49.484375 20.578125 49.019531 21.316406 49.148438 L 45.453125 53.441406 C 45.832031 53.507812 46.15625 53.71875 46.367188 54.035156 C 46.582031 54.355469 46.652344 54.734375 46.570312 55.105469 L 46.003906 57.617188 C 45.859375 58.261719 45.296875 58.703125 44.652344 58.703125 Z M 44.652344 58.703125 " fill-opacity="1" fill-rule="nonzero"/><path fill="#e2e2d3" d="M 48.492188 53.636719 C 47.957031 55.859375 45.328125 56.585938 42.382812 56.65625 C 38.019531 56.757812 32.960938 55.429688 32.960938 55.429688 C 32.960938 55.429688 27.8125 54.496094 23.910156 52.558594 C 22.359375 51.789062 21.003906 50.863281 20.246094 49.773438 C 19.714844 49.011719 19.476562 48.167969 19.671875 47.246094 C 20.554688 42.992188 27.300781 32.832031 30.417969 28.292969 C 31.375 26.898438 31.992188 26.039062 31.992188 26.039062 L 39.09375 28.085938 L 46.402344 29.234375 C 46.402344 29.234375 49.816406 48.117188 48.492188 53.636719 Z M 48.492188 53.636719 " fill-opacity="1" fill-rule="nonzero"/><path fill="#afaea0" d="M 33.933594 32.140625 C 33.933594 32.140625 32.796875 33.078125 31.8125 34.679688 C 30.828125 36.28125 26.695312 39.953125 25.113281 40.65625 C 23.527344 41.355469 20.042969 47.9375 20.335938 49.335938 C 20.378906 49.535156 20.34375 49.675781 20.246094 49.773438 C 19.714844 49.011719 19.476562 48.167969 19.671875 47.246094 C 20.554688 42.992188 27.300781 32.832031 30.417969 28.292969 Z M 33.933594 32.140625 " fill-opacity="1" fill-rule="nonzero"/><path fill="#1c1d23" d="M 48.039062 53.53125 C 48.238281 52.59375 48.300781 51.582031 48.332031 50.578125 C 48.363281 49.566406 48.34375 48.550781 48.304688 47.535156 C 48.21875 45.5 48.046875 43.464844 47.84375 41.433594 C 47.632812 39.398438 47.382812 37.367188 47.109375 35.339844 C 46.832031 33.3125 46.53125 31.289062 46.199219 29.269531 L 46.371094 29.4375 L 39.0625 28.292969 L 39.050781 28.292969 L 39.039062 28.289062 L 31.933594 26.238281 L 32.164062 26.15625 C 30.1875 28.980469 28.273438 31.855469 26.433594 34.769531 C 25.515625 36.226562 24.617188 37.695312 23.753906 39.1875 C 22.898438 40.675781 22.0625 42.183594 21.328125 43.730469 C 20.960938 44.5 20.613281 45.285156 20.335938 46.082031 C 20.261719 46.277344 20.207031 46.480469 20.140625 46.679688 C 20.078125 46.878906 20.039062 47.082031 19.988281 47.28125 C 19.914062 47.667969 19.910156 48.054688 19.988281 48.433594 C 20.160156 49.1875 20.65625 49.859375 21.257812 50.417969 C 21.863281 50.976562 22.570312 51.445312 23.3125 51.851562 C 24.054688 52.261719 24.832031 52.609375 25.621094 52.933594 C 26.417969 53.253906 27.226562 53.53125 28.042969 53.792969 C 28.863281 54.050781 29.691406 54.28125 30.523438 54.492188 C 31.355469 54.699219 32.199219 54.890625 33.03125 55.046875 L 33.0625 55.054688 C 33.726562 55.21875 34.414062 55.367188 35.097656 55.5 C 35.78125 55.632812 36.46875 55.75 37.15625 55.851562 C 38.535156 56.054688 39.921875 56.191406 41.300781 56.222656 C 41.992188 56.238281 42.679688 56.230469 43.363281 56.167969 C 44.042969 56.109375 44.714844 56.003906 45.355469 55.828125 C 45.992188 55.644531 46.597656 55.382812 47.082031 55.003906 C 47.570312 54.625 47.890625 54.109375 48.039062 53.53125 Z M 48.945312 53.746094 C 48.753906 54.519531 48.277344 55.246094 47.648438 55.714844 C 47.019531 56.195312 46.304688 56.488281 45.59375 56.683594 C 44.875 56.875 44.152344 56.980469 43.433594 57.035156 C 42.710938 57.09375 41.992188 57.09375 41.28125 57.074219 C 39.851562 57.03125 38.433594 56.878906 37.035156 56.65625 C 36.332031 56.546875 35.636719 56.421875 34.941406 56.28125 C 34.246094 56.136719 33.558594 55.988281 32.863281 55.808594 L 32.890625 55.8125 C 32.023438 55.644531 31.179688 55.445312 30.332031 55.222656 C 29.488281 55.003906 28.648438 54.761719 27.816406 54.492188 C 26.988281 54.21875 26.164062 53.925781 25.351562 53.59375 C 24.542969 53.253906 23.742188 52.886719 22.972656 52.449219 C 22.203125 52.019531 21.457031 51.519531 20.796875 50.902344 C 20.472656 50.585938 20.160156 50.25 19.910156 49.855469 C 19.664062 49.464844 19.453125 49.035156 19.359375 48.566406 C 19.261719 48.101562 19.273438 47.613281 19.367188 47.152344 C 19.421875 46.9375 19.46875 46.714844 19.539062 46.503906 C 19.609375 46.292969 19.667969 46.078125 19.746094 45.875 C 20.042969 45.046875 20.40625 44.253906 20.785156 43.472656 C 21.542969 41.90625 22.398438 40.402344 23.273438 38.90625 C 24.152344 37.417969 25.070312 35.953125 26.003906 34.496094 C 27.875 31.589844 29.8125 28.734375 31.820312 25.917969 L 31.90625 25.796875 L 32.050781 25.835938 L 39.15625 27.886719 L 39.128906 27.882812 L 46.4375 29.027344 L 46.582031 29.050781 L 46.609375 29.195312 C 46.992188 31.210938 47.335938 33.234375 47.660156 35.257812 C 47.984375 37.285156 48.28125 39.316406 48.539062 41.351562 C 48.792969 43.390625 49.011719 45.433594 49.148438 47.492188 C 49.210938 48.519531 49.253906 49.550781 49.246094 50.589844 C 49.238281 51.632812 49.191406 52.679688 48.945312 53.746094 Z M 48.945312 53.746094 " fill-opacity="1" fill-rule="nonzero"/><path fill="#ff2e57" d="M 43.289062 34.757812 C 43.289062 34.757812 43.585938 43.710938 48.464844 45.898438 L 48.46875 45.898438 C 48.097656 41.425781 47.367188 36.449219 46.859375 33.265625 C 45.550781 33.746094 43.289062 34.757812 43.289062 34.757812 Z M 43.289062 34.757812 " fill-opacity="1" fill-rule="nonzero"/><path fill="#1c1d23" d="M 43.507812 34.890625 C 43.570312 35.992188 44.144531 43.359375 48.226562 45.550781 C 47.863281 41.332031 47.203125 36.761719 46.691406 33.550781 C 45.578125 33.976562 43.972656 34.683594 43.507812 34.890625 Z M 48.699219 46.171875 L 48.378906 46.089844 C 43.4375 43.871094 43.09375 35.136719 43.082031 34.765625 L 43.078125 34.625 L 43.203125 34.566406 C 43.226562 34.558594 45.488281 33.546875 46.785156 33.074219 L 47.023438 32.984375 L 47.0625 33.234375 C 47.59375 36.554688 48.308594 41.441406 48.675781 45.882812 Z M 48.699219 46.171875 " fill-opacity="1" fill-rule="nonzero"/><path fill="#ff2e57" d="M 32.722656 31.722656 C 32.722656 31.722656 28.628906 39.699219 23.273438 39.621094 C 25.523438 35.726562 28.308594 31.527344 30.128906 28.867188 C 31.109375 29.851562 32.722656 31.722656 32.722656 31.722656 Z M 32.722656 31.722656 " fill-opacity="1" fill-rule="nonzero"/><path fill="#1c1d23" d="M 30.160156 29.195312 C 28.324219 31.882812 25.773438 35.742188 23.640625 39.40625 C 28.273438 39.148438 31.941406 32.722656 32.46875 31.75 C 32.136719 31.367188 30.984375 30.046875 30.160156 29.195312 Z M 23.355469 39.828125 C 23.328125 39.828125 23.300781 39.828125 23.273438 39.828125 L 23.234375 39.824219 L 22.949219 39.769531 L 23.09375 39.519531 C 25.324219 35.652344 28.054688 31.527344 29.957031 28.75 L 30.097656 28.539062 L 30.277344 28.71875 C 31.25 29.699219 32.863281 31.566406 32.878906 31.585938 L 32.972656 31.691406 L 32.90625 31.816406 C 32.738281 32.144531 28.734375 39.828125 23.355469 39.828125 Z M 23.355469 39.828125 " fill-opacity="1" fill-rule="nonzero"/><path fill="#e2e2d3" d="M 44.734375 46.175781 L 42.382812 56.65625 C 38.019531 56.757812 32.960938 55.429688 32.960938 55.429688 C 32.960938 55.429688 28.734375 54.660156 25.039062 53.078125 C 24.65625 52.914062 24.277344 52.738281 23.910156 52.558594 L 26.261719 42.078125 C 26.480469 41.097656 27.460938 40.480469 28.441406 40.699219 L 30.558594 41.167969 L 43.347656 44.003906 C 44.332031 44.222656 44.953125 45.195312 44.734375 46.175781 Z M 44.734375 46.175781 " fill-opacity="1" fill-rule="nonzero"/><path fill="#afaea0" d="M 31.375 41.617188 C 31.375 41.617188 27.921875 40.957031 27.34375 42.292969 C 26.859375 43.410156 25.476562 50.726562 25.039062 53.078125 C 24.65625 52.914062 24.277344 52.738281 23.910156 52.558594 L 26.261719 42.078125 C 26.480469 41.097656 27.457031 40.480469 28.441406 40.699219 L 30.558594 41.167969 Z M 31.375 41.617188 " fill-opacity="1" fill-rule="nonzero"/><path fill="#1c1d23" d="M 44.476562 46.117188 C 44.535156 45.84375 44.527344 45.550781 44.433594 45.285156 C 44.34375 45.015625 44.175781 44.773438 43.960938 44.59375 C 43.851562 44.5 43.730469 44.425781 43.601562 44.367188 C 43.539062 44.339844 43.472656 44.308594 43.402344 44.292969 L 43.300781 44.261719 L 43.183594 44.234375 L 42.210938 44.019531 L 38.332031 43.160156 L 30.570312 41.4375 L 28.628906 41.007812 L 28.386719 40.953125 C 28.316406 40.945312 28.246094 40.925781 28.175781 40.925781 C 28.035156 40.90625 27.890625 40.925781 27.75 40.945312 C 27.613281 40.972656 27.476562 41.019531 27.347656 41.082031 C 27.226562 41.148438 27.101562 41.222656 27 41.320312 C 26.894531 41.414062 26.796875 41.519531 26.726562 41.640625 C 26.648438 41.757812 26.589844 41.890625 26.546875 42.023438 L 26.519531 42.125 L 26.492188 42.246094 L 26.4375 42.484375 L 26.328125 42.96875 L 25.894531 44.898438 L 25.011719 48.753906 L 24.566406 50.679688 L 24.113281 52.605469 L 24.003906 52.375 C 24.710938 52.714844 25.429688 53.03125 26.167969 53.308594 C 26.90625 53.585938 27.652344 53.847656 28.40625 54.074219 C 29.160156 54.304688 29.921875 54.519531 30.6875 54.710938 C 31.453125 54.902344 32.226562 55.078125 33 55.226562 L 33.007812 55.230469 L 33.015625 55.230469 C 33.773438 55.421875 34.550781 55.589844 35.324219 55.738281 C 36.101562 55.890625 36.882812 56.019531 37.664062 56.128906 C 38.445312 56.238281 39.230469 56.320312 40.015625 56.378906 C 40.804688 56.4375 41.589844 56.457031 42.378906 56.449219 L 42.179688 56.609375 L 42.746094 53.984375 L 43.320312 51.363281 Z M 44.988281 46.230469 L 43.792969 51.46875 L 43.195312 54.085938 L 42.585938 56.699219 L 42.550781 56.863281 L 42.386719 56.863281 C 41.585938 56.875 40.785156 56.851562 39.988281 56.792969 C 39.191406 56.730469 38.394531 56.652344 37.605469 56.539062 C 36.816406 56.425781 36.03125 56.296875 35.246094 56.144531 C 34.464844 55.996094 33.6875 55.828125 32.90625 55.632812 L 32.925781 55.636719 C 32.136719 55.484375 31.359375 55.304688 30.585938 55.113281 C 29.8125 54.917969 29.046875 54.703125 28.285156 54.46875 C 27.519531 54.238281 26.765625 53.976562 26.019531 53.695312 C 25.273438 53.414062 24.539062 53.09375 23.816406 52.742188 L 23.671875 52.675781 L 23.707031 52.511719 L 24.117188 50.578125 L 24.539062 48.648438 L 25.386719 44.785156 L 25.816406 42.855469 L 26.007812 42.007812 L 26.046875 41.871094 C 26.101562 41.691406 26.175781 41.519531 26.28125 41.359375 C 26.378906 41.199219 26.507812 41.058594 26.648438 40.929688 C 26.785156 40.800781 26.949219 40.699219 27.113281 40.613281 C 27.285156 40.53125 27.464844 40.46875 27.652344 40.433594 C 27.839844 40.402344 28.027344 40.382812 28.21875 40.40625 C 28.3125 40.40625 28.40625 40.433594 28.5 40.445312 L 28.742188 40.5 L 30.683594 40.929688 L 38.445312 42.652344 L 42.324219 43.511719 L 43.296875 43.726562 L 43.417969 43.753906 L 43.554688 43.792969 C 43.644531 43.816406 43.734375 43.855469 43.820312 43.890625 C 43.992188 43.972656 44.15625 44.070312 44.300781 44.191406 C 44.585938 44.4375 44.8125 44.757812 44.929688 45.117188 C 45.054688 45.472656 45.066406 45.863281 44.988281 46.230469 Z M 44.988281 46.230469 " fill-opacity="1" fill-rule="nonzero"/><path fill="#1c1d23" d="M 22.675781 63.117188 C 20.667969 57.28125 16.210938 56.589844 16.023438 56.5625 L 16.136719 55.746094 C 16.347656 55.773438 21.285156 56.511719 23.460938 62.851562 Z M 22.675781 63.117188 " fill-opacity="1" fill-rule="nonzero"/><path fill="#1c1d23" d="M 37.644531 64.988281 L 37.054688 64.410156 C 37.199219 64.257812 40.761719 60.777344 47.167969 62.847656 L 46.910156 63.632812 C 41.011719 61.726562 37.777344 64.855469 37.644531 64.988281 Z M 37.644531 64.988281 " fill-opacity="1" fill-rule="nonzero"/><g clip-path="url(#79af8d730b)"><path fill="#e2e2d3" d="M 17.925781 68.523438 C 16.476562 70.085938 14.160156 69.273438 11.820312 67.128906 C 11.519531 66.851562 11.234375 66.570312 10.96875 66.28125 C 9.75 64.960938 8.917969 63.539062 8.882812 62.332031 C 8.867188 61.738281 9.042969 61.199219 9.457031 60.75 C 10.25 59.894531 11.53125 59.648438 12.910156 59.953125 C 14.050781 60.203125 15.261719 60.832031 16.320312 61.804688 C 16.628906 62.089844 16.910156 62.390625 17.164062 62.699219 C 18.8125 64.726562 19.183594 67.167969 17.925781 68.523438 Z M 17.925781 68.523438 " fill-opacity="1" fill-rule="nonzero"/></g><g clip-path="url(#f298829200)"><path fill="#ffffff" d="M 12.910156 59.953125 C 12.753906 59.988281 9.789062 60.675781 8.882812 62.332031 C 8.867188 61.738281 9.042969 61.199219 9.457031 60.75 C 10.25 59.894531 11.53125 59.648438 12.910156 59.953125 Z M 12.910156 59.953125 " fill-opacity="1" fill-rule="nonzero"/></g><path fill="#afaea0" d="M 17.925781 68.523438 C 16.476562 70.085938 14.160156 69.273438 11.820312 67.128906 C 11.519531 66.851562 11.234375 66.570312 10.96875 66.28125 C 12.203125 66.984375 13.582031 67.125 14.378906 67.363281 C 16.753906 68.070312 17.164062 62.699219 17.164062 62.699219 C 18.8125 64.726562 19.183594 67.167969 17.925781 68.523438 Z M 17.925781 68.523438 " fill-opacity="1" fill-rule="nonzero"/><g clip-path="url(#a87e9ed205)"><path fill="#1c1d23" d="M 17.628906 68.25 C 17.992188 67.871094 18.21875 67.363281 18.285156 66.8125 C 18.355469 66.265625 18.28125 65.683594 18.125 65.125 C 17.800781 64.003906 17.132812 62.96875 16.285156 62.125 C 15.4375 61.277344 14.390625 60.597656 13.238281 60.257812 C 12.664062 60.085938 12.0625 60.003906 11.476562 60.054688 C 10.894531 60.101562 10.324219 60.296875 9.882812 60.65625 C 9.664062 60.839844 9.476562 61.054688 9.347656 61.296875 C 9.214844 61.535156 9.152344 61.808594 9.136719 62.085938 C 9.105469 62.644531 9.28125 63.214844 9.53125 63.742188 C 9.785156 64.277344 10.121094 64.773438 10.496094 65.242188 C 10.875 65.710938 11.289062 66.152344 11.730469 66.5625 C 12.171875 66.976562 12.640625 67.363281 13.125 67.714844 C 13.609375 68.0625 14.121094 68.371094 14.65625 68.589844 C 15.1875 68.808594 15.742188 68.933594 16.261719 68.902344 C 16.78125 68.859375 17.253906 68.632812 17.628906 68.25 Z M 18.222656 68.796875 L 18.035156 68.980469 C 17.96875 69.042969 17.910156 69.109375 17.832031 69.15625 C 17.6875 69.261719 17.542969 69.375 17.375 69.449219 C 17.292969 69.488281 17.214844 69.539062 17.128906 69.566406 L 16.867188 69.652344 C 16.78125 69.6875 16.691406 69.695312 16.601562 69.710938 C 16.511719 69.726562 16.421875 69.746094 16.332031 69.75 C 15.609375 69.800781 14.929688 69.609375 14.328125 69.339844 C 13.722656 69.066406 13.179688 68.710938 12.667969 68.324219 C 12.160156 67.933594 11.683594 67.515625 11.242188 67.0625 C 10.359375 66.160156 9.554688 65.152344 9.027344 63.972656 C 8.773438 63.382812 8.585938 62.730469 8.644531 62.050781 C 8.675781 61.714844 8.769531 61.375 8.941406 61.074219 C 9.109375 60.773438 9.34375 60.519531 9.605469 60.3125 C 10.136719 59.898438 10.792969 59.683594 11.441406 59.632812 C 12.09375 59.585938 12.742188 59.679688 13.359375 59.855469 C 14.589844 60.214844 15.699219 60.898438 16.636719 61.761719 C 17.105469 62.191406 17.523438 62.675781 17.890625 63.207031 C 18.253906 63.734375 18.554688 64.3125 18.761719 64.929688 C 18.972656 65.546875 19.082031 66.214844 19.023438 66.894531 C 18.96875 67.570312 18.703125 68.261719 18.222656 68.796875 Z M 18.222656 68.796875 " fill-opacity="1" fill-rule="nonzero"/></g><path fill="#e2e2d3" d="M 50.285156 71.972656 C 49.609375 73.105469 47.964844 73.878906 45.792969 74.277344 C 42.664062 74.847656 39.632812 74.417969 39.242188 72.328125 C 38.976562 70.875 39.960938 69.390625 41.636719 68.429688 C 41.640625 68.429688 41.640625 68.429688 41.640625 68.429688 C 42.378906 68.003906 43.253906 67.679688 44.210938 67.503906 C 47.339844 66.933594 50.191406 68.164062 50.578125 70.253906 C 50.695312 70.894531 50.585938 71.46875 50.285156 71.972656 Z M 50.285156 71.972656 " fill-opacity="1" fill-rule="nonzero"/><path fill="#afaea0" d="M 50.285156 71.972656 C 49.609375 73.105469 47.964844 73.878906 45.792969 74.277344 C 42.664062 74.847656 39.632812 74.417969 39.242188 72.328125 C 38.976562 70.875 39.960938 69.390625 41.636719 68.429688 C 41.609375 68.515625 40.375 72.128906 44.621094 72.65625 C 47.117188 72.964844 49.078125 72.453125 50.285156 71.972656 Z M 50.285156 71.972656 " fill-opacity="1" fill-rule="nonzero"/><path fill="#1c1d23" d="M 50.304688 70.304688 C 50.214844 69.761719 49.925781 69.25 49.503906 68.855469 C 49.085938 68.453125 48.5625 68.15625 48.003906 67.949219 C 46.878906 67.535156 45.625 67.488281 44.4375 67.691406 C 43.25 67.898438 42.089844 68.34375 41.152344 69.070312 C 40.683594 69.433594 40.269531 69.863281 39.972656 70.351562 C 39.675781 70.839844 39.511719 71.390625 39.539062 71.929688 C 39.554688 72.199219 39.613281 72.460938 39.726562 72.691406 C 39.835938 72.925781 40.003906 73.125 40.203125 73.292969 C 40.609375 73.632812 41.15625 73.839844 41.71875 73.957031 C 42.289062 74.074219 42.882812 74.117188 43.480469 74.109375 C 44.078125 74.097656 44.679688 74.046875 45.277344 73.957031 C 46.46875 73.773438 47.664062 73.5 48.699219 72.953125 C 49.210938 72.675781 49.679688 72.320312 49.984375 71.867188 C 50.289062 71.414062 50.394531 70.859375 50.304688 70.304688 Z M 50.851562 70.207031 L 50.882812 70.457031 C 50.894531 70.542969 50.910156 70.625 50.90625 70.714844 C 50.902344 70.882812 50.90625 71.058594 50.867188 71.226562 C 50.824219 71.574219 50.679688 71.898438 50.507812 72.195312 C 50.136719 72.78125 49.605469 73.21875 49.042969 73.550781 C 48.476562 73.886719 47.875 74.125 47.261719 74.316406 C 46.648438 74.503906 46.027344 74.648438 45.398438 74.746094 C 44.140625 74.9375 42.84375 74.996094 41.550781 74.710938 C 41.230469 74.636719 40.910156 74.539062 40.597656 74.398438 C 40.289062 74.257812 39.984375 74.085938 39.722656 73.847656 C 39.457031 73.609375 39.226562 73.316406 39.085938 72.984375 C 38.9375 72.652344 38.875 72.296875 38.863281 71.953125 C 38.851562 71.253906 39.089844 70.582031 39.457031 70.03125 C 39.824219 69.472656 40.300781 69.015625 40.824219 68.636719 C 41.882812 67.890625 43.109375 67.441406 44.367188 67.253906 C 45.625 67.066406 46.929688 67.132812 48.152344 67.542969 C 48.757812 67.753906 49.34375 68.058594 49.839844 68.5 C 50.335938 68.933594 50.714844 69.535156 50.851562 70.207031 Z M 50.851562 70.207031 " fill-opacity="1" fill-rule="nonzero"/><path fill="#1c1d23" d="M 54.914062 39.921875 C 51.253906 37.851562 52.671875 33.121094 52.6875 33.074219 L 53.214844 33.234375 C 53.160156 33.414062 51.914062 37.589844 55.1875 39.445312 Z M 54.914062 39.921875 " fill-opacity="1" fill-rule="nonzero"/><path fill="#1c1d23" d="M 20.6875 31.90625 L 20.617188 31.359375 C 23.8125 30.964844 25.351562 26.761719 25.363281 26.71875 L 25.886719 26.902344 C 25.820312 27.089844 24.21875 31.46875 20.6875 31.90625 Z M 20.6875 31.90625 " fill-opacity="1" fill-rule="nonzero"/><path fill="#afaea0" d="M 31.375 45.039062 C 31.375 46.144531 30.472656 47.042969 29.359375 47.042969 C 29.160156 47.042969 28.964844 47.011719 28.78125 46.957031 C 27.949219 46.710938 27.34375 45.945312 27.34375 45.039062 C 27.34375 44.03125 28.09375 43.199219 29.066406 43.058594 C 29.160156 43.042969 29.261719 43.035156 29.359375 43.035156 C 30.472656 43.035156 31.375 43.929688 31.375 45.039062 Z M 31.375 45.039062 " fill-opacity="1" fill-rule="nonzero"/><path fill="#e2e2d3" d="M 31.375 45.039062 C 31.375 46.144531 30.472656 47.042969 29.359375 47.042969 C 29.160156 47.042969 28.964844 47.011719 28.78125 46.957031 C 30.296875 45.550781 29.492188 43.773438 29.066406 43.058594 C 29.160156 43.042969 29.261719 43.035156 29.359375 43.035156 C 30.472656 43.035156 31.375 43.929688 31.375 45.039062 Z M 31.375 45.039062 " fill-opacity="1" fill-rule="nonzero"/><path fill="#1c1d23" d="M 29.359375 43.242188 C 28.363281 43.242188 27.554688 44.046875 27.554688 45.039062 C 27.554688 46.027344 28.363281 46.832031 29.359375 46.832031 C 30.355469 46.832031 31.167969 46.027344 31.167969 45.039062 C 31.167969 44.046875 30.355469 43.242188 29.359375 43.242188 Z M 29.359375 47.25 C 28.132812 47.25 27.136719 46.257812 27.136719 45.039062 C 27.136719 43.820312 28.132812 42.828125 29.359375 42.828125 C 30.585938 42.828125 31.585938 43.820312 31.585938 45.039062 C 31.585938 46.257812 30.585938 47.25 29.359375 47.25 Z M 29.359375 47.25 " fill-opacity="1" fill-rule="nonzero"/><path fill="#e2e2d3" d="M 23.132812 12.324219 L 24.871094 4.160156 L 25.828125 4.308594 L 24.738281 11.605469 Z M 23.132812 12.324219 " fill-opacity="1" fill-rule="nonzero"/><path fill="#1c1d23" d="M 25.035156 4.394531 L 23.425781 11.964844 L 24.546875 11.460938 L 25.589844 4.480469 Z M 22.84375 12.679688 L 24.710938 3.921875 L 26.0625 4.136719 L 24.925781 11.746094 Z M 22.84375 12.679688 " fill-opacity="1" fill-rule="nonzero"/><path fill="#e2e2d3" d="M 24.683594 24.945312 C 24.683594 24.945312 24.457031 24.863281 24.121094 24.71875 C 23.429688 24.417969 22.285156 23.863281 21.691406 23.25 C 20.8125 22.335938 21.273438 15.019531 21.667969 13.738281 C 21.898438 12.992188 23.296875 12.167969 24.421875 11.613281 C 25.226562 11.214844 25.890625 10.953125 25.890625 10.953125 Z M 24.683594 24.945312 " fill-opacity="1" fill-rule="nonzero"/><path fill="#afaea0" d="M 24.683594 24.945312 C 24.683594 24.945312 24.457031 24.863281 24.121094 24.71875 C 20.992188 21.054688 23.945312 12.148438 23.945312 12.148438 L 24.421875 11.613281 C 25.226562 11.214844 25.890625 10.953125 25.890625 10.953125 Z M 24.683594 24.945312 " fill-opacity="1" fill-rule="nonzero"/><path fill="#1c1d23" d="M 25.96875 11.148438 C 25.28125 11.449219 24.597656 11.78125 23.945312 12.148438 C 23.621094 12.332031 23.304688 12.53125 23 12.742188 C 22.703125 12.949219 22.414062 13.179688 22.191406 13.433594 C 22.085938 13.558594 21.996094 13.695312 21.960938 13.816406 C 21.914062 13.960938 21.882812 14.152344 21.855469 14.328125 C 21.796875 14.691406 21.757812 15.066406 21.722656 15.4375 C 21.652344 16.1875 21.601562 16.9375 21.574219 17.691406 C 21.539062 18.441406 21.519531 19.195312 21.53125 19.945312 C 21.542969 20.691406 21.566406 21.445312 21.671875 22.164062 C 21.683594 22.253906 21.695312 22.34375 21.714844 22.429688 L 21.742188 22.558594 L 21.773438 22.679688 C 21.785156 22.722656 21.796875 22.761719 21.8125 22.796875 C 21.824219 22.832031 21.835938 22.875 21.851562 22.902344 C 21.867188 22.929688 21.878906 22.96875 21.894531 22.988281 C 21.902344 22.996094 21.910156 23.003906 21.914062 23.015625 L 21.921875 23.03125 L 21.945312 23.050781 C 22.175781 23.292969 22.476562 23.507812 22.78125 23.710938 C 23.398438 24.105469 24.078125 24.449219 24.757812 24.753906 L 24.613281 25.140625 C 24.238281 25.019531 23.882812 24.878906 23.523438 24.726562 C 23.167969 24.574219 22.816406 24.402344 22.476562 24.207031 C 22.132812 24.007812 21.800781 23.789062 21.492188 23.492188 L 21.464844 23.464844 L 21.429688 23.425781 L 21.363281 23.339844 C 21.320312 23.28125 21.300781 23.230469 21.269531 23.171875 C 21.238281 23.117188 21.226562 23.070312 21.203125 23.015625 C 21.183594 22.964844 21.164062 22.910156 21.152344 22.863281 L 21.109375 22.710938 L 21.074219 22.5625 C 21.050781 22.460938 21.035156 22.363281 21.015625 22.265625 C 20.949219 21.875 20.917969 21.488281 20.890625 21.105469 C 20.867188 20.71875 20.855469 20.335938 20.851562 19.949219 C 20.847656 19.183594 20.867188 18.421875 20.90625 17.65625 C 20.945312 16.894531 21.003906 16.132812 21.089844 15.371094 C 21.132812 14.992188 21.183594 14.609375 21.25 14.226562 C 21.289062 14.03125 21.320312 13.847656 21.390625 13.628906 C 21.476562 13.390625 21.613281 13.210938 21.75 13.050781 C 22.039062 12.738281 22.359375 12.5 22.6875 12.28125 C 23.015625 12.0625 23.355469 11.875 23.699219 11.695312 C 24.386719 11.339844 25.089844 11.03125 25.816406 10.757812 Z M 25.96875 11.148438 " fill-opacity="1" fill-rule="nonzero"/><path fill="#e2e2d3" d="M 61.863281 19.335938 L 63.132812 11.085938 L 62.183594 10.890625 L 60.617188 18.101562 Z M 61.863281 19.335938 " fill-opacity="1" fill-rule="nonzero"/><path fill="#1c1d23" d="M 60.847656 18.035156 L 61.71875 18.898438 L 62.894531 11.25 L 62.34375 11.136719 Z M 62.007812 19.773438 L 60.390625 18.167969 L 62.023438 10.648438 L 63.367188 10.921875 Z M 62.007812 19.773438 " fill-opacity="1" fill-rule="nonzero"/><path fill="#e2e2d3" d="M 59.335938 30.066406 C 58.859375 30.296875 58.183594 30.425781 57.5625 30.503906 C 56.699219 30.609375 55.933594 30.605469 55.933594 30.605469 L 59.769531 17.089844 C 59.769531 17.089844 60.429688 17.683594 61.125 18.457031 C 61.925781 19.339844 62.777344 20.460938 62.730469 21.175781 C 62.648438 22.511719 60.484375 29.519531 59.335938 30.066406 Z M 59.335938 30.066406 " fill-opacity="1" fill-rule="nonzero"/><path fill="#afaea0" d="M 57.5625 30.503906 C 56.699219 30.609375 55.933594 30.605469 55.933594 30.605469 L 59.769531 17.089844 C 59.769531 17.089844 60.429688 17.683594 61.125 18.457031 C 61.066406 19.929688 60.644531 26.375 57.5625 30.503906 Z M 57.5625 30.503906 " fill-opacity="1" fill-rule="nonzero"/><path fill="#1c1d23" d="M 55.933594 30.8125 L 55.9375 30.398438 C 55.957031 30.398438 58.15625 30.398438 59.246094 29.878906 C 60.226562 29.410156 62.429688 22.65625 62.523438 21.164062 C 62.589844 20.148438 60.457031 17.988281 59.628906 17.242188 L 59.910156 16.933594 C 60.230469 17.222656 63.03125 19.792969 62.941406 21.1875 C 62.859375 22.480469 60.707031 29.644531 59.429688 30.253906 C 58.25 30.816406 56.027344 30.816406 55.933594 30.8125 Z M 55.933594 30.8125 " fill-opacity="1" fill-rule="nonzero"/><path fill="#e2e2d3" d="M 55.941406 30.59375 C 55.78125 30.773438 55.621094 30.945312 55.453125 31.117188 C 55.082031 31.5 54.6875 31.859375 54.269531 32.195312 C 53.378906 32.914062 52.386719 33.53125 51.292969 34.035156 C 48.027344 35.550781 43.875 36.082031 38.917969 35.378906 C 34.03125 34.296875 30.328125 32.34375 27.8125 29.785156 C 26.96875 28.925781 26.257812 28.003906 25.679688 27.019531 C 25.640625 26.953125 25.601562 26.886719 25.566406 26.824219 C 22.644531 21.664062 23.4375 14.9375 27.191406 7.824219 C 28.292969 5.734375 29.804688 4.144531 31.574219 2.988281 C 35.425781 0.472656 40.5 0.0078125 45.242188 0.84375 C 49.160156 1.574219 52.976562 3.214844 55.714844 5.863281 C 57.804688 7.878906 59.265625 10.480469 59.664062 13.707031 C 59.8125 14.917969 59.902344 16.09375 59.929688 17.238281 C 60.0625 22.726562 58.769531 27.351562 55.941406 30.59375 Z M 55.941406 30.59375 " fill-opacity="1" fill-rule="nonzero"/><path fill="#ffffff" d="M 55.714844 5.863281 C 53.617188 4.566406 50.160156 2.96875 44.65625 2.003906 C 39.402344 1.085938 34.742188 1.976562 31.574219 2.988281 C 35.425781 0.472656 40.5 0.0078125 45.242188 0.84375 C 49.160156 1.574219 52.976562 3.21875 55.714844 5.863281 Z M 55.714844 5.863281 " fill-opacity="1" fill-rule="nonzero"/><path fill="#afaea0" d="M 55.453125 31.117188 C 55.082031 31.5 54.6875 31.859375 54.269531 32.195312 C 53.378906 32.914062 52.386719 33.53125 51.292969 34.035156 C 48.027344 35.550781 43.875 36.082031 38.917969 35.378906 C 34.03125 34.296875 30.328125 32.34375 27.8125 29.785156 C 26.96875 28.925781 26.257812 28.003906 25.679688 27.019531 C 25.640625 26.953125 25.601562 26.886719 25.566406 26.824219 C 24.910156 24.089844 24.589844 18.964844 27.285156 13.824219 C 31.765625 5.28125 36.1875 3.851562 44.433594 5.34375 C 51.929688 6.699219 58.566406 11.996094 57.195312 23.730469 C 56.855469 26.640625 56.222656 29.085938 55.453125 31.117188 Z M 55.453125 31.117188 " fill-opacity="1" fill-rule="nonzero"/><path fill="#1c1d23" d="M 55.707031 30.390625 C 56.984375 28.921875 57.910156 27.167969 58.527344 25.320312 C 58.839844 24.398438 59.066406 23.441406 59.234375 22.480469 C 59.398438 21.515625 59.511719 20.539062 59.554688 19.5625 C 59.65625 17.601562 59.554688 15.628906 59.304688 13.683594 C 59.054688 11.761719 58.378906 9.90625 57.296875 8.296875 C 56.757812 7.496094 56.128906 6.753906 55.429688 6.078125 C 54.730469 5.402344 53.957031 4.804688 53.140625 4.265625 C 51.507812 3.191406 49.691406 2.398438 47.8125 1.824219 C 46.871094 1.539062 45.910156 1.3125 44.941406 1.144531 C 43.972656 0.984375 42.992188 0.878906 42.007812 0.832031 C 40.046875 0.746094 38.066406 0.898438 36.167969 1.378906 C 35.21875 1.621094 34.292969 1.941406 33.410156 2.351562 C 32.527344 2.761719 31.691406 3.269531 30.921875 3.863281 C 30.152344 4.453125 29.453125 5.132812 28.847656 5.890625 C 28.238281 6.648438 27.722656 7.46875 27.285156 8.347656 C 26.382812 10.097656 25.613281 11.917969 25.050781 13.800781 L 24.839844 14.503906 L 24.667969 15.222656 L 24.582031 15.578125 L 24.539062 15.757812 L 24.507812 15.9375 L 24.375 16.660156 C 24.355469 16.78125 24.328125 16.898438 24.308594 17.019531 L 24.265625 17.386719 L 24.179688 18.113281 C 24.152344 18.355469 24.148438 18.601562 24.132812 18.84375 L 24.109375 19.210938 L 24.101562 19.390625 L 24.101562 19.574219 C 24.113281 20.0625 24.097656 20.550781 24.152344 21.035156 C 24.175781 21.277344 24.1875 21.519531 24.214844 21.761719 C 24.253906 22.003906 24.289062 22.242188 24.324219 22.484375 C 24.34375 22.605469 24.355469 22.726562 24.378906 22.847656 L 24.457031 23.203125 C 24.511719 23.4375 24.558594 23.679688 24.617188 23.914062 L 24.832031 24.613281 C 24.867188 24.730469 24.898438 24.851562 24.941406 24.964844 L 25.078125 25.304688 C 25.175781 25.527344 25.261719 25.757812 25.363281 25.980469 L 25.707031 26.628906 C 25.765625 26.734375 25.820312 26.84375 25.882812 26.949219 C 25.945312 27.054688 26.007812 27.160156 26.074219 27.261719 C 26.203125 27.46875 26.34375 27.671875 26.484375 27.871094 C 27.050781 28.671875 27.703125 29.410156 28.421875 30.078125 C 29.859375 31.417969 31.550781 32.476562 33.339844 33.304688 C 35.136719 34.128906 37.039062 34.714844 38.972656 35.148438 L 38.953125 35.144531 C 40.464844 35.347656 41.992188 35.457031 43.515625 35.425781 C 44.277344 35.414062 45.035156 35.351562 45.789062 35.269531 C 46.542969 35.175781 47.292969 35.042969 48.027344 34.867188 C 48.765625 34.695312 49.488281 34.464844 50.195312 34.195312 C 50.898438 33.921875 51.585938 33.605469 52.238281 33.230469 C 53.542969 32.480469 54.726562 31.527344 55.707031 30.390625 Z M 56.171875 30.792969 C 55.136719 31.972656 53.890625 32.964844 52.523438 33.730469 C 51.84375 34.117188 51.128906 34.441406 50.398438 34.71875 C 49.664062 34.992188 48.917969 35.226562 48.15625 35.398438 C 47.394531 35.570312 46.625 35.703125 45.851562 35.792969 C 45.078125 35.875 44.300781 35.929688 43.523438 35.9375 C 41.96875 35.960938 40.417969 35.832031 38.882812 35.621094 L 38.875 35.617188 L 38.863281 35.617188 C 36.90625 35.171875 34.972656 34.570312 33.148438 33.71875 C 31.324219 32.867188 29.597656 31.777344 28.121094 30.390625 C 27.386719 29.703125 26.71875 28.9375 26.136719 28.113281 C 25.992188 27.90625 25.851562 27.695312 25.714844 27.484375 C 25.648438 27.375 25.582031 27.269531 25.519531 27.160156 C 25.457031 27.050781 25.402344 26.9375 25.339844 26.828125 L 24.984375 26.160156 C 24.875 25.929688 24.777344 25.699219 24.671875 25.46875 L 24.519531 25.125 C 24.46875 25.007812 24.429688 24.886719 24.386719 24.769531 L 24.132812 24.054688 C 24.058594 23.8125 23.996094 23.566406 23.929688 23.324219 L 23.832031 22.957031 C 23.800781 22.832031 23.785156 22.707031 23.761719 22.582031 C 23.714844 22.335938 23.671875 22.085938 23.628906 21.835938 C 23.59375 21.585938 23.582031 21.332031 23.558594 21.082031 C 23.496094 20.578125 23.511719 20.074219 23.5 19.566406 L 23.496094 19.378906 L 23.507812 19.1875 L 23.527344 18.8125 C 23.542969 18.558594 23.546875 18.308594 23.574219 18.058594 L 23.660156 17.308594 L 23.707031 16.933594 C 23.726562 16.808594 23.75 16.683594 23.769531 16.558594 L 23.902344 15.816406 L 23.9375 15.632812 L 24.066406 15.082031 L 24.242188 14.347656 L 24.453125 13.625 C 25.023438 11.699219 25.804688 9.839844 26.714844 8.058594 C 27.601562 6.246094 28.894531 4.585938 30.515625 3.34375 C 31.324219 2.71875 32.199219 2.179688 33.125 1.75 C 34.050781 1.316406 35.015625 0.976562 36 0.722656 C 37.972656 0.222656 40.019531 0.0625 42.039062 0.148438 C 43.050781 0.195312 44.058594 0.304688 45.058594 0.46875 C 46.058594 0.640625 47.042969 0.871094 48.011719 1.164062 C 49.949219 1.753906 51.828125 2.566406 53.527344 3.683594 C 54.378906 4.242188 55.183594 4.867188 55.921875 5.570312 C 56.652344 6.277344 57.320312 7.058594 57.890625 7.90625 C 59.035156 9.601562 59.746094 11.578125 60.003906 13.59375 C 60.257812 15.582031 60.34375 17.59375 60.230469 19.597656 C 60.179688 20.601562 60.0625 21.601562 59.882812 22.59375 C 59.707031 23.585938 59.46875 24.566406 59.140625 25.523438 C 58.492188 27.4375 57.515625 29.257812 56.171875 30.792969 Z M 56.171875 30.792969 " fill-opacity="1" fill-rule="nonzero"/><path fill="#1c1d23" d="M 56.625 25.175781 C 55.960938 28.796875 54.007812 31.871094 51.292969 34.039062 C 48.03125 35.550781 43.875 36.082031 38.917969 35.382812 C 34.027344 34.296875 30.328125 32.347656 27.8125 29.785156 C 26.042969 26.808594 25.300781 23.246094 25.964844 19.621094 C 27.460938 11.449219 35.539062 6.066406 44.007812 7.601562 C 52.472656 9.132812 58.125 17 56.625 25.175781 Z M 56.625 25.175781 " fill-opacity="1" fill-rule="nonzero"/><path fill="#ffffff" d="M 28.097656 22.394531 C 27.605469 22.433594 28.113281 26.257812 30.453125 29.222656 C 33.09375 32.566406 37.738281 33.496094 37.90625 32.890625 C 38.152344 32.011719 34.777344 31.890625 31.742188 28.949219 C 29.160156 26.445312 28.636719 22.355469 28.097656 22.394531 Z M 28.097656 22.394531 " fill-opacity="1" fill-rule="nonzero"/><path fill="#ffffff" d="M 54.667969 20.019531 C 55.015625 19.949219 55.003906 18.523438 54.429688 17.050781 C 53.820312 15.492188 52.429688 14.375 52.140625 14.554688 C 51.941406 14.683594 52.253906 15.121094 53.039062 16.6875 C 54.136719 18.890625 54.351562 20.082031 54.667969 20.019531 Z M 54.667969 20.019531 " fill-opacity="1" fill-rule="nonzero"/><path fill="#ffffff" d="M 51.507812 13.433594 C 51.273438 12.96875 50.460938 12.898438 50.320312 13.109375 C 50.246094 13.226562 50.367188 13.421875 50.417969 13.503906 C 50.679688 13.925781 51.304688 14.140625 51.503906 13.953125 C 51.625 13.839844 51.582031 13.585938 51.507812 13.433594 Z M 51.507812 13.433594 " fill-opacity="1" fill-rule="nonzero"/></svg>